<svg width="80" height="80" viewBox="0 0 80 80" fill="none" xmlns="http://www.w3.org/2000/svg">
<rect width="80" height="80" fill="none"/>
<path d="M26.3594 36.0555V44.1364C26.3594 46.5649 27.6516 48.8049 29.7546 50.0192L36.7492 54.0596C38.8522 55.2738 41.4366 55.2738 43.5397 54.0596L50.5342 50.0192C52.6373 48.8049 53.9294 46.5649 53.9294 44.1364V36.0555C53.9294 33.6271 52.6373 31.387 50.5342 30.1728L43.5397 26.1324C41.4366 24.9181 38.8522 24.9181 36.7492 26.1324L29.7546 30.1728C27.6516 31.387 26.3594 33.6271 26.3594 36.0555Z" stroke="#4200FF" stroke-width="1.5" stroke-miterlimit="10"/>
<path opacity="0.8" d="M16.6523 30.8426V49.3439C16.6523 52.0131 18.0753 54.4782 20.3876 55.818L36.4013 65.0713C38.7136 66.4059 41.5596 66.4059 43.8719 65.0713L59.8856 55.818C62.1979 54.4834 63.6209 52.0183 63.6209 49.3439V30.8426C63.6209 28.1734 62.1979 25.7083 59.8856 24.3685L43.8719 15.1152C41.5596 13.7806 38.7136 13.7806 36.4013 15.1152L20.3876 24.3685C18.0753 25.7083 16.6523 28.1734 16.6523 30.8426Z" stroke="#9614F4" stroke-width="1.00633" stroke-miterlimit="10"/>
<path opacity="0.6" d="M8.33594 24.766V55.4253C8.33594 57.3094 9.34039 59.047 10.9726 59.9891L37.5121 75.3188C39.1443 76.2608 41.1532 76.2608 42.7802 75.3188L69.3197 59.9891C70.9519 59.047 71.9564 57.3094 71.9564 55.4253V24.766C71.9564 22.8819 70.9519 21.1443 69.3197 20.2022L42.7802 4.87257C41.148 3.9305 39.1391 3.9305 37.5121 4.87257L10.9674 20.2022C9.34039 21.139 8.33594 22.8819 8.33594 24.766Z" stroke="#9614F4" stroke-width="0.503164" stroke-miterlimit="10"/>
</svg>
